<?xml version="1.0" encoding="UTF-8"?>
<svg width="22px" height="24px" viewBox="0 0 22 24" version="1.1" xmlns="http://www.w3.org/2000/svg" xmlns:xlink="http://www.w3.org/1999/xlink">
    <!-- Generator: Sketch 59.1 (86144) - https://sketch.com -->
    <title>Group 3</title>
    <desc>Created with Sketch.</desc>
    <defs>
        <polygon id="path-1" points="0 0 22 0 22 24 0 24"></polygon>
    </defs>
    <g id="Symbols" stroke="none" stroke-width="1" fill="none" fill-rule="evenodd">
        <g id="Group-13" transform="translate(-1341.000000, -29.000000)">
            <g id="Group-3">
                <g transform="translate(1341.000000, 29.000000)">
                    <mask id="mask-2" fill="white">
                        <use xlink:href="#path-1"></use>
                    </mask>
                    <g id="Clip-2"></g>
                    <path d="M9.42666217,2.13485647 C13.4895714,2.13485647 16.7624705,5.46313601 16.7624705,9.59979841 C16.7624705,13.7364608 13.4895714,17.0687722 9.42666217,17.0687722 C5.36375295,17.0687722 2.09481381,13.7364608 2.09481381,9.59979841 C2.09481381,5.46313601 5.36375295,2.13485647 9.42666217,2.13485647 M9.42666217,0 C4.23120711,0 0,4.31003129 0,9.59979841 C0,14.8895655 4.23120711,19.1995968 9.42666217,19.1995968 C11.2462594,19.1995968 12.9371583,18.659331 14.3686804,17.7420886 L20.2115874,23.6870288 C20.6214422,24.1043237 21.2847339,24.1043237 21.6926088,23.6870288 C22.1024637,23.2717499 22.1024637,22.5964175 21.6926088,22.1791227 L16.0160198,16.4015035 C17.6336596,14.7484513 18.6691866,12.4986876 18.7780853,10.0090296 C18.8315446,9.88001092 18.8572843,9.74091262 18.8592643,9.59979841 C18.8572843,9.46070011 18.8295646,9.32160181 18.7780853,9.19459902 C18.556328,4.1023918 14.481539,0 9.42666217,0" id="Fill-1" fill="#000000" mask="url(#mask-2)"></path>
                </g>
            </g>
        </g>
    </g>
</svg>