<?xml version="1.0" encoding="UTF-8"?>
<svg width="16px" height="17px" viewBox="0 0 16 17" version="1.1" xmlns="http://www.w3.org/2000/svg" xmlns:xlink="http://www.w3.org/1999/xlink">
    <!-- Generator: Sketch 59.1 (86144) - https://sketch.com -->
    <title>Group</title>
    <desc>Created with Sketch.</desc>
    <g id="Page-1" stroke="none" stroke-width="1" fill="none" fill-rule="evenodd">
        <g id="d_마이페이지_일반_계정" transform="translate(-1466.000000, -85.000000)" fill="#000000" fill-rule="nonzero">
            <g id="Group-15" transform="translate(1377.000000, 69.000000)">
                <g id="Group-12">
                    <g id="Group-11" transform="translate(26.000000, 4.000000)">
                        <g id="Group" transform="translate(63.000000, 11.000000)">
                            <g transform="translate(8.500000, 9.041650) scale(-1, 1) rotate(-180.000000) translate(-8.500000, -9.041650) translate(0.000000, 0.541650)" id="Shape">
                                <g transform="translate(0.037120, 0.007176)">
                                    <g>
                                        <path d="M10.4114585,7.81205103 C10.4114585,6.44519288 9.29199462,5.33186486 7.91638006,5.33186486 C6.54179941,5.33186486 5.42104316,6.44519288 5.42104316,7.81205103 C5.42104316,9.17812183 6.54179941,10.2898777 7.91638006,10.2898777 C9.29277006,10.2890904 10.4114585,9.17812183 10.4114585,7.81205103 M13.5594498,9.58544976 L13.1663063,10.5336945 C13.1663063,10.5336945 14.0810564,12.627549 13.9993776,12.7083847 L12.7897053,13.9078001 C12.7051833,13.9907354 10.6425369,13.0348796 10.6425369,13.0348796 L9.69056615,13.4251454 C9.69056615,13.4251454 8.84999897,15.5478724 8.73445975,15.5478724 L7.0261853,15.5478724 C6.90806131,15.5478724 6.12927013,13.4201614 6.12927013,13.4201614 L5.17936717,13.029103 C5.17936717,13.029103 3.07303815,13.9379796 2.99187637,13.8571466 L1.7837549,12.6556315 C1.70000836,12.5732211 2.66180125,10.5208343 2.66180125,10.5208343 L2.26891622,9.57442671 C2.26891622,9.57442671 0.133379298,8.73903702 0.133379298,8.62644444 L0.133379298,6.92679517 C0.133379298,6.80842861 2.27382729,6.03392814 2.27382729,6.03392814 L2.66671232,5.08883286 C2.66671232,5.08883286 1.75273767,2.9962906 1.83312401,2.91597981 L3.04279634,1.71341759 C3.12447507,1.63179453 5.18867235,2.58738795 5.18867235,2.58738795 L6.14116007,2.19580724 C6.14116007,2.19580724 6.98172725,0.0746575406 7.09830038,0.0746575406 L8.80631635,0.0746575406 C8.92444034,0.0746575406 9.70323152,2.20236858 9.70323152,2.20236858 L10.6564947,2.59394929 C10.6564947,2.59394929 12.7586881,1.6845477 12.8401083,1.76407113 L14.0502976,2.96558354 C14.1337857,3.04930622 13.1701834,5.10064327 13.1701834,5.10064327 L13.5620346,6.04678837 C13.5620346,6.04678837 15.6983471,6.88349033 15.6983471,6.99765763 L15.6983471,8.69651954 C15.6991224,8.813314 13.5594498,9.58544976 13.5594498,9.58544976"></path>
                                    </g>
                                </g>
                            </g>
                        </g>
                    </g>
                </g>
            </g>
        </g>
    </g>
</svg>