<?xml version="1.0" encoding="UTF-8"?>
<svg width="22px" height="24px" viewBox="0 0 22 24" version="1.1" xmlns="http://www.w3.org/2000/svg" xmlns:xlink="http://www.w3.org/1999/xlink">
    <!-- Generator: Sketch 59.1 (86144) - https://sketch.com -->
    <title>Shape</title>
    <desc>Created with Sketch.</desc>
    <g id="Page-1" stroke="none" stroke-width="1" fill="none" fill-rule="evenodd">
        <g id="d_커리어_상세페이지" transform="translate(-1266.000000, -422.000000)" fill="#868EEE">
            <path d="M1281.93778,439.891566 L1273.22333,434.891566 C1273.28444,434.614458 1273.33333,434.337349 1273.33333,434.048193 C1273.33333,433.759036 1273.28444,433.481928 1273.22333,433.204819 L1281.84,428.253012 C1282.5,428.855422 1283.36778,429.228916 1284.33333,429.228916 C1286.36222,429.228916 1288,427.614458 1288,425.614458 C1288,423.614458 1286.36222,422 1284.33333,422 C1282.30444,422 1280.66667,423.614458 1280.66667,425.614458 C1280.66667,425.903614 1280.71556,426.180723 1280.77667,426.457831 L1272.16,431.409639 C1271.5,430.807229 1270.63222,430.433735 1269.66667,430.433735 C1267.63778,430.433735 1266,432.048193 1266,434.048193 C1266,436.048193 1267.63778,437.662651 1269.66667,437.662651 C1270.63222,437.662651 1271.5,437.289157 1272.16,436.686747 L1280.86222,441.698795 C1280.80111,441.951807 1280.76444,442.216867 1280.76444,442.481928 C1280.76444,444.421687 1282.36556,446 1284.33333,446 C1286.30111,446 1287.90222,444.421687 1287.90222,442.481928 C1287.90222,440.542169 1286.30111,438.963855 1284.33333,438.963855 C1283.40444,438.963855 1282.57333,439.325301 1281.93778,439.891566 Z" id="Shape"></path>
        </g>
    </g>
</svg>